<svg width="23" height="23" viewBox="0 0 23 23" fill="none" xmlns="http://www.w3.org/2000/svg">
<path d="M20.897 9.62306H20.1251V9.58329H11.5001V13.4166H16.9161C16.126 15.6481 14.0028 17.25 11.5001 17.25C8.32464 17.25 5.75008 14.6754 5.75008 11.5C5.75008 8.32452 8.32464 5.74996 11.5001 5.74996C12.9659 5.74996 14.2994 6.30292 15.3147 7.20615L18.0254 4.4955C16.3138 2.90036 14.0243 1.91663 11.5001 1.91663C6.20769 1.91663 1.91675 6.20756 1.91675 11.5C1.91675 16.7924 6.20769 21.0833 11.5001 21.0833C16.7925 21.0833 21.0834 16.7924 21.0834 11.5C21.0834 10.8574 21.0173 10.2302 20.897 9.62306Z" fill="#FFC107"/>
<path d="M3.02173 7.0394L6.17033 9.3485C7.02229 7.23921 9.08558 5.74996 11.5001 5.74996C12.9659 5.74996 14.2994 6.30292 15.3147 7.20615L18.0254 4.4955C16.3138 2.90036 14.0244 1.91663 11.5001 1.91663C7.81914 1.91663 4.62694 3.99477 3.02173 7.0394Z" fill="#FF3D00"/>
<path d="M11.5001 21.0833C13.9754 21.0833 16.2247 20.136 17.9252 18.5955L14.9592 16.0856C13.9649 16.8422 12.7495 17.2513 11.5001 17.25C9.00744 17.25 6.89096 15.6606 6.09363 13.4425L2.96851 15.8503C4.55455 18.9539 7.77551 21.0833 11.5001 21.0833Z" fill="#4CAF50"/>
<path d="M20.8969 9.62314H20.125V9.58337H11.5V13.4167H16.916C16.5381 14.4787 15.8572 15.4068 14.9577 16.0861L14.9591 16.0852L17.9251 18.5951C17.7153 18.7858 21.0833 16.2917 21.0833 11.5C21.0833 10.8575 21.0172 10.2302 20.8969 9.62314Z" fill="#1976D2"/>
</svg>
